{
	"asset":{
		"generator":"Khronos glTF Blender I/O v4.5.48",
		"version":"2.0"
	},
	"scene":0,
	"scenes":[
		{
			"name":"Scene",
			"nodes":[
				34
			]
		}
	],
	"nodes":[
		{
			"mesh":0,
			"name":"Object_7"
		},
		{
			"children":[
				0
			],
			"name":"bandage_2",
			"translation":[
				0,
				0.010037720203399658,
				-0.22917406260967255
			]
		},
		{
			"mesh":1,
			"name":"Object_10"
		},
		{
			"mesh":2,
			"name":"Object_9"
		},
		{
			"children":[
				2,
				3
			],
			"name":"bellL_3",
			"rotation":[
				0,
				0.42356979846954346,
				0,
				0.9058634638786316
			],
			"scale":[
				0.17954961955547333,
				0.17954963445663452,
				0.17954961955547333
			],
			"translation":[
				0.6145757436752319,
				0.07936328649520874,
				0.6243049502372742
			]
		},
		{
			"mesh":3,
			"name":"Object_12"
		},
		{
			"mesh":4,
			"name":"Object_13"
		},
		{
			"children":[
				5,
				6
			],
			"name":"bellR_4",
			"rotation":[
				0,
				-0.4235694706439972,
				0,
				0.9058636426925659
			],
			"scale":[
				0.17954963445663452,
				0.17954963445663452,
				0.17954963445663452
			],
			"translation":[
				-0.614575982093811,
				0.07936328649520874,
				0.6243049502372742
			]
		},
		{
			"mesh":5,
			"name":"Object_15"
		},
		{
			"children":[
				8
			],
			"name":"eyes_5"
		},
		{
			"mesh":6,
			"name":"Object_17"
		},
		{
			"children":[
				10
			],
			"name":"fang_6",
			"rotation":[
				0,
				0,
				1,
				4.371138828673793e-08
			],
			"translation":[
				0.057047877460718155,
				-0.1900726556777954,
				1.0150835514068604
			]
		},
		{
			"mesh":7,
			"name":"Object_19"
		},
		{
			"children":[
				12
			],
			"name":"hairsides_7",
			"translation":[
				0,
				-0.10831218957901001,
				0.6606080532073975
			]
		},
		{
			"mesh":8,
			"name":"Object_21"
		},
		{
			"children":[
				14
			],
			"name":"horns_8",
			"translation":[
				0,
				0.010037720203399658,
				-0.22917406260967255
			]
		},
		{
			"mesh":9,
			"name":"Object_4"
		},
		{
			"mesh":10,
			"name":"Object_5"
		},
		{
			"mesh":11,
			"name":"Object_23"
		},
		{
			"mesh":12,
			"name":"Object_24"
		},
		{
			"children":[
				18,
				19
			],
			"name":"ribbonBack.004_9",
			"translation":[
				0,
				-0.04923129081726074,
				-0.9443751573562622
			]
		},
		{
			"mesh":13,
			"name":"Object_28"
		},
		{
			"children":[
				21
			],
			"name":"BezierCircle_10",
			"scale":[
				19.19916534423828,
				19.19916534423828,
				19.19916534423828
			],
			"translation":[
				0,
				0,
				-0.1121985912322998
			]
		},
		{
			"mesh":14,
			"name":"Object_26",
			"translation":[
				0,
				0,
				-2.5033950805664062e-06
			]
		},
		{
			"mesh":15,
			"name":"Object_30"
		},
		{
			"children":[
				24
			],
			"name":"stripsFront_11",
			"rotation":[
				-0.09800015389919281,
				0,
				0,
				0.995186448097229
			],
			"scale":[
				19.19916534423828,
				19.19916534423828,
				19.19916534423828
			],
			"translation":[
				0.06858251988887787,
				-1.2509374618530273,
				-0.36088740825653076
			]
		},
		{
			"children":[
				22,
				23,
				25
			],
			"name":"ribbonPearl_12",
			"rotation":[
				0.09800013154745102,
				0,
				0,
				0.995186448097229
			],
			"scale":[
				0.052085597068071365,
				0.052085597068071365,
				0.052085597068071365
			],
			"translation":[
				-0.005629729945212603,
				-0.4922987222671509,
				1.05209219455719
			]
		},
		{
			"mesh":16,
			"name":"Object_32"
		},
		{
			"children":[
				27
			],
			"name":"stripsL_13",
			"rotation":[
				-0.23998688161373138,
				0.5449742078781128,
				0.20082998275756836,
				0.777866780757904
			],
			"translation":[
				0.620730996131897,
				-0.09163051843643188,
				0.6129447221755981
			]
		},
		{
			"mesh":17,
			"name":"Object_34"
		},
		{
			"children":[
				29
			],
			"name":"stripsR_14",
			"rotation":[
				0.30299434065818787,
				0.9441872835159302,
				-0.11252938210964203,
				0.06357627362012863
			],
			"translation":[
				-0.6154853105545044,
				-0.09163051843643188,
				0.6129447221755981
			]
		},
		{
			"children":[
				1,
				4,
				7,
				9,
				11,
				13,
				15,
				16,
				17,
				20,
				26,
				28,
				30
			],
			"name":"body_15"
		},
		{
			"children":[
				31
			],
			"name":"GLTF_SceneRootNode",
			"rotation":[
				0.70710688829422,
				0,
				0,
				0.7071066498756409
			]
		},
		{
			"children":[
				32
			],
			"name":"root",
			"scale":[
				0.30000001192092896,
				0.30000001192092896,
				0.30000001192092896
			],
			"translation":[
				0,
				0,
				0.30000001192092896
			]
		},
		{
			"children":[
				33
			],
			"name":"Sketchfab_model",
			"rotation":[
				-0.70710688829422,
				0,
				0,
				0.7071066498756409
			]
		}
	],
	"materials":[
		{
			"doubleSided":true,
			"name":"bandage",
			"pbrMetallicRoughness":{
				"baseColorFactor":[
					0.039546236395835876,
					0.039546236395835876,
					0.039546236395835876,
					1
				],
				"metallicFactor":0
			}
		},
		{
			"doubleSided":true,
			"name":"bells_inside",
			"pbrMetallicRoughness":{
				"baseColorFactor":[
					0.03433980792760849,
					0.015208514407277107,
					0,
					1
				],
				"metallicFactor":0
			}
		},
		{
			"doubleSided":true,
			"name":"bells",
			"pbrMetallicRoughness":{
				"baseColorFactor":[
					0.5149176716804504,
					0.3762621283531189,
					0,
					1
				],
				"roughnessFactor":0.5230359435081482
			}
		},
		{
			"doubleSided":true,
			"name":"eyes",
			"pbrMetallicRoughness":{
				"baseColorFactor":[
					0,
					0,
					0,
					1
				],
				"metallicFactor":0
			}
		},
		{
			"doubleSided":true,
			"name":"white",
			"pbrMetallicRoughness":{
				"metallicFactor":0
			}
		},
		{
			"doubleSided":true,
			"name":"poyoyo",
			"pbrMetallicRoughness":{
				"baseColorTexture":{
					"index":0
				},
				"metallicFactor":0
			}
		},
		{
			"doubleSided":true,
			"name":"mouth",
			"pbrMetallicRoughness":{
				"baseColorFactor":[
					0.7991027235984802,
					0.21223075687885284,
					0.15592646598815918,
					1
				],
				"metallicFactor":0
			}
		},
		{
			"doubleSided":true,
			"name":"strips",
			"pbrMetallicRoughness":{
				"baseColorFactor":[
					0.366252601146698,
					0.011612244881689548,
					0.009134058840572834,
					1
				],
				"metallicFactor":0
			}
		}
	],
	"meshes":[
		{
			"name":"Object_2",
			"primitives":[
				{
					"attributes":{
						"POSITION":0,
						"NORMAL":1,
						"TEXCOORD_0":2
					},
					"indices":3,
					"material":0
				}
			]
		},
		{
			"name":"Object_4",
			"primitives":[
				{
					"attributes":{
						"POSITION":4,
						"NORMAL":5
					},
					"indices":6,
					"material":1
				}
			]
		},
		{
			"name":"Object_3",
			"primitives":[
				{
					"attributes":{
						"POSITION":7,
						"NORMAL":8
					},
					"indices":9,
					"material":2
				}
			]
		},
		{
			"name":"Object_5",
			"primitives":[
				{
					"attributes":{
						"POSITION":10,
						"NORMAL":11
					},
					"indices":9,
					"material":2
				}
			]
		},
		{
			"name":"Object_6",
			"primitives":[
				{
					"attributes":{
						"POSITION":12,
						"NORMAL":13
					},
					"indices":6,
					"material":1
				}
			]
		},
		{
			"name":"Object_7",
			"primitives":[
				{
					"attributes":{
						"POSITION":14,
						"NORMAL":15,
						"TEXCOORD_0":16
					},
					"indices":17,
					"material":3
				}
			]
		},
		{
			"name":"Object_8",
			"primitives":[
				{
					"attributes":{
						"POSITION":18,
						"NORMAL":19,
						"TEXCOORD_0":20
					},
					"indices":21,
					"material":4
				}
			]
		},
		{
			"name":"Object_9",
			"primitives":[
				{
					"attributes":{
						"POSITION":22,
						"NORMAL":23,
						"TEXCOORD_0":24
					},
					"indices":25,
					"material":4
				}
			]
		},
		{
			"name":"Object_10",
			"primitives":[
				{
					"attributes":{
						"POSITION":26,
						"NORMAL":27,
						"TEXCOORD_0":28
					},
					"indices":29,
					"material":5
				}
			]
		},
		{
			"name":"Object_0",
			"primitives":[
				{
					"attributes":{
						"POSITION":30,
						"NORMAL":31,
						"TEXCOORD_0":32
					},
					"indices":33,
					"material":5
				}
			]
		},
		{
			"name":"Object_1",
			"primitives":[
				{
					"attributes":{
						"POSITION":34,
						"NORMAL":35,
						"TEXCOORD_0":36
					},
					"indices":37,
					"material":6
				}
			]
		},
		{
			"name":"Object_11",
			"primitives":[
				{
					"attributes":{
						"POSITION":38,
						"NORMAL":39,
						"TEXCOORD_0":40
					},
					"indices":41,
					"material":4
				}
			]
		},
		{
			"name":"Object_12",
			"primitives":[
				{
					"attributes":{
						"POSITION":42,
						"NORMAL":43,
						"TEXCOORD_0":44
					},
					"indices":45,
					"material":7
				}
			]
		},
		{
			"name":"Object_14",
			"primitives":[
				{
					"attributes":{
						"POSITION":46,
						"NORMAL":47,
						"TEXCOORD_0":48
					},
					"indices":49,
					"material":7
				}
			]
		},
		{
			"name":"Object_13",
			"primitives":[
				{
					"attributes":{
						"POSITION":50,
						"NORMAL":51,
						"TEXCOORD_0":52
					},
					"indices":53,
					"material":4
				}
			]
		},
		{
			"name":"Object_15",
			"primitives":[
				{
					"attributes":{
						"POSITION":54,
						"NORMAL":55,
						"TEXCOORD_0":56
					},
					"indices":57,
					"material":7
				}
			]
		},
		{
			"name":"Object_16",
			"primitives":[
				{
					"attributes":{
						"POSITION":58,
						"NORMAL":59,
						"TEXCOORD_0":60
					},
					"indices":61,
					"material":7
				}
			]
		},
		{
			"name":"Object_17",
			"primitives":[
				{
					"attributes":{
						"POSITION":62,
						"NORMAL":63,
						"TEXCOORD_0":64
					},
					"indices":65,
					"material":7
				}
			]
		}
	],
	"textures":[
		{
			"sampler":0,
			"source":0
		}
	],
	"images":[
		{
			"mimeType":"image/png",
			"name":"Image_0",
			"uri":"Image_0.png"
		}
	],
	"accessors":[
		{
			"bufferView":0,
			"componentType":5126,
			"count":153,
			"max":[
				0.5401061773300171,
				0.6198019981384277,
				1.0649564266204834
			],
			"min":[
				0.2500815987586975,
				0.23543231189250946,
				0.7376647591590881
			],
			"type":"VEC3"
		},
		{
			"bufferView":1,
			"componentType":5126,
			"count":153,
			"type":"VEC3"
		},
		{
			"bufferView":2,
			"componentType":5126,
			"count":153,
			"type":"VEC2"
		},
		{
			"bufferView":3,
			"componentType":5123,
			"count":462,
			"type":"SCALAR"
		},
		{
			"bufferView":4,
			"componentType":5126,
			"count":114,
			"max":[
				0.9200000166893005,
				0.9200000166893005,
				0.9200000166893005
			],
			"min":[
				-0.9200000166893005,
				-0.9200000166893005,
				-0.9200000166893005
			],
			"type":"VEC3"
		},
		{
			"bufferView":5,
			"componentType":5126,
			"count":114,
			"type":"VEC3"
		},
		{
			"bufferView":6,
			"componentType":5123,
			"count":672,
			"type":"SCALAR"
		},
		{
			"bufferView":7,
			"componentType":5126,
			"count":510,
			"max":[
				1.1068660020828247,
				1,
				1.106852412223816
			],
			"min":[
				-1.1068660020828247,
				-0.9918402433395386,
				-1.106852412223816
			],
			"type":"VEC3"
		},
		{
			"bufferView":8,
			"componentType":5126,
			"count":510,
			"type":"VEC3"
		},
		{
			"bufferView":9,
			"componentType":5123,
			"count":2136,
			"type":"SCALAR"
		},
		{
			"bufferView":10,
			"componentType":5126,
			"count":510,
			"max":[
				1.1068660020828247,
				1,
				1.106852412223816
			],
			"min":[
				-1.1068660020828247,
				-0.9918402433395386,
				-1.106852412223816
			],
			"type":"VEC3"
		},
		{
			"bufferView":11,
			"componentType":5126,
			"count":510,
			"type":"VEC3"
		},
		{
			"bufferView":12,
			"componentType":5126,
			"count":114,
			"max":[
				0.9200000166893005,
				0.9200000166893005,
				0.9200000166893005
			],
			"min":[
				-0.9200000166893005,
				-0.9200000166893005,
				-0.9200000166893005
			],
			"type":"VEC3"
		},
		{
			"bufferView":13,
			"componentType":5126,
			"count":114,
			"type":"VEC3"
		},
		{
			"bufferView":14,
			"componentType":5126,
			"count":1705,
			"max":[
				0.36930882930755615,
				0.12982884049415588,
				0.9881316423416138
			],
			"min":[
				-0.36930882930755615,
				-0.09281685948371887,
				0.8289987444877625
			],
			"type":"VEC3"
		},
		{
			"bufferView":15,
			"componentType":5126,
			"count":1705,
			"type":"VEC3"
		},
		{
			"bufferView":16,
			"componentType":5126,
			"count":1705,
			"type":"VEC2"
		},
		{
			"bufferView":17,
			"componentType":5123,
			"count":7296,
			"type":"SCALAR"
		},
		{
			"bufferView":18,
			"componentType":5126,
			"count":13,
			"max":[
				0.009526260197162628,
				0.018999971449375153,
				0.010999977588653564
			],
			"min":[
				-0.009526260197162628,
				-0.048399921506643295,
				-0.010999977588653564
			],
			"type":"VEC3"
		},
		{
			"bufferView":19,
			"componentType":5126,
			"count":13,
			"type":"VEC3"
		},
		{
			"bufferView":20,
			"componentType":5126,
			"count":13,
			"type":"VEC2"
		},
		{
			"bufferView":21,
			"componentType":5123,
			"count":54,
			"type":"SCALAR"
		},
		{
			"bufferView":22,
			"componentType":5126,
			"count":212,
			"max":[
				0.8094387054443359,
				0.2079387754201889,
				-0.035050906240940094
			],
			"min":[
				-0.8094387054443359,
				-0.3087122440338135,
				-0.4246600270271301
			],
			"type":"VEC3"
		},
		{
			"bufferView":23,
			"componentType":5126,
			"count":212,
			"type":"VEC3"
		},
		{
			"bufferView":24,
			"componentType":5126,
			"count":212,
			"type":"VEC2"
		},
		{
			"bufferView":25,
			"componentType":5123,
			"count":936,
			"type":"SCALAR"
		},
		{
			"bufferView":26,
			"componentType":5126,
			"count":141,
			"max":[
				0.5352985262870789,
				1.0523313283920288,
				1.075075626373291
			],
			"min":[
				-0.5352985262870789,
				0.11999651789665222,
				0.6973348259925842
			],
			"type":"VEC3"
		},
		{
			"bufferView":27,
			"componentType":5126,
			"count":141,
			"type":"VEC3"
		},
		{
			"bufferView":28,
			"componentType":5126,
			"count":141,
			"type":"VEC2"
		},
		{
			"bufferView":29,
			"componentType":5123,
			"count":648,
			"type":"SCALAR"
		},
		{
			"bufferView":30,
			"componentType":5126,
			"count":1424,
			"max":[
				0.773427426815033,
				0.611270546913147,
				1.045471429824829
			],
			"min":[
				-0.773427426815033,
				-0.9510297775268555,
				-0.9373655915260315
			],
			"type":"VEC3"
		},
		{
			"bufferView":31,
			"componentType":5126,
			"count":1424,
			"type":"VEC3"
		},
		{
			"bufferView":32,
			"componentType":5126,
			"count":1424,
			"type":"VEC2"
		},
		{
			"bufferView":33,
			"componentType":5123,
			"count":7908,
			"type":"SCALAR"
		},
		{
			"bufferView":34,
			"componentType":5126,
			"count":186,
			"max":[
				0.16259750723838806,
				-0.06163627654314041,
				1.0394353866577148
			],
			"min":[
				-0.16259750723838806,
				-0.2909652590751648,
				0.7974317669868469
			],
			"type":"VEC3"
		},
		{
			"bufferView":35,
			"componentType":5126,
			"count":186,
			"type":"VEC3"
		},
		{
			"bufferView":36,
			"componentType":5126,
			"count":186,
			"type":"VEC2"
		},
		{
			"bufferView":37,
			"componentType":5123,
			"count":948,
			"type":"SCALAR"
		},
		{
			"bufferView":38,
			"componentType":5126,
			"count":6579,
			"max":[
				0.8917201161384583,
				0.38382959365844727,
				0.10743103176355362
			],
			"min":[
				-0.8907856941223145,
				-0.8627703189849854,
				-0.17425143718719482
			],
			"type":"VEC3"
		},
		{
			"bufferView":39,
			"componentType":5126,
			"count":6579,
			"type":"VEC3"
		},
		{
			"bufferView":40,
			"componentType":5126,
			"count":6579,
			"type":"VEC2"
		},
		{
			"bufferView":41,
			"componentType":5123,
			"count":37008,
			"type":"SCALAR"
		},
		{
			"bufferView":42,
			"componentType":5126,
			"count":5808,
			"max":[
				0.8917751312255859,
				0.38752609491348267,
				0.11088185012340546
			],
			"min":[
				-0.8941503167152405,
				-0.7553364634513855,
				-0.17562933266162872
			],
			"type":"VEC3"
		},
		{
			"bufferView":43,
			"componentType":5126,
			"count":5808,
			"type":"VEC3"
		},
		{
			"bufferView":44,
			"componentType":5126,
			"count":5808,
			"type":"VEC2"
		},
		{
			"bufferView":45,
			"componentType":5123,
			"count":34728,
			"type":"SCALAR"
		},
		{
			"bufferView":46,
			"componentType":5126,
			"count":343,
			"max":[
				0.15043428540229797,
				0.15043428540229797,
				0.020000116899609566
			],
			"min":[
				-0.15043428540229797,
				-0.15043428540229797,
				-0.02000000886619091
			],
			"type":"VEC3"
		},
		{
			"bufferView":47,
			"componentType":5126,
			"count":343,
			"type":"VEC3"
		},
		{
			"bufferView":48,
			"componentType":5126,
			"count":343,
			"type":"VEC2"
		},
		{
			"bufferView":49,
			"componentType":5123,
			"count":1728,
			"type":"SCALAR"
		},
		{
			"bufferView":50,
			"componentType":5126,
			"count":63,
			"max":[
				0.9510578513145447,
				1,
				0.9999999403953552
			],
			"min":[
				-0.9510578513145447,
				-1,
				-0.9999999403953552
			],
			"type":"VEC3"
		},
		{
			"bufferView":51,
			"componentType":5126,
			"count":63,
			"type":"VEC3"
		},
		{
			"bufferView":52,
			"componentType":5126,
			"count":63,
			"type":"VEC2"
		},
		{
			"bufferView":53,
			"componentType":5123,
			"count":240,
			"type":"SCALAR"
		},
		{
			"bufferView":54,
			"componentType":5126,
			"count":1694,
			"max":[
				0.04304397106170654,
				0.017925240099430084,
				0.03437013551592827
			],
			"min":[
				-0.04304395988583565,
				-0.2191905677318573,
				-0.056279219686985016
			],
			"type":"VEC3"
		},
		{
			"bufferView":55,
			"componentType":5126,
			"count":1694,
			"type":"VEC3"
		},
		{
			"bufferView":56,
			"componentType":5126,
			"count":1694,
			"type":"VEC2"
		},
		{
			"bufferView":57,
			"componentType":5123,
			"count":3042,
			"type":"SCALAR"
		},
		{
			"bufferView":58,
			"componentType":5126,
			"count":3313,
			"max":[
				0.052541960030794144,
				0.018065327778458595,
				0.05157537758350372
			],
			"min":[
				-0.05254194885492325,
				-0.19400997459888458,
				-0.052742376923561096
			],
			"type":"VEC3"
		},
		{
			"bufferView":59,
			"componentType":5126,
			"count":3313,
			"type":"VEC3"
		},
		{
			"bufferView":60,
			"componentType":5126,
			"count":3313,
			"type":"VEC2"
		},
		{
			"bufferView":61,
			"componentType":5123,
			"count":7956,
			"type":"SCALAR"
		},
		{
			"bufferView":62,
			"componentType":5126,
			"count":3309,
			"max":[
				0.052541960030794144,
				0.018065322190523148,
				0.051575373858213425
			],
			"min":[
				-0.05254194885492325,
				-0.19400998950004578,
				-0.052742376923561096
			],
			"type":"VEC3"
		},
		{
			"bufferView":63,
			"componentType":5126,
			"count":3309,
			"type":"VEC3"
		},
		{
			"bufferView":64,
			"componentType":5126,
			"count":3309,
			"type":"VEC2"
		},
		{
			"bufferView":65,
			"componentType":5123,
			"count":7956,
			"type":"SCALAR"
		}
	],
	"bufferViews":[
		{
			"buffer":0,
			"byteLength":1836,
			"byteOffset":0,
			"target":34962
		},
		{
			"buffer":0,
			"byteLength":1836,
			"byteOffset":1836,
			"target":34962
		},
		{
			"buffer":0,
			"byteLength":1224,
			"byteOffset":3672,
			"target":34962
		},
		{
			"buffer":0,
			"byteLength":924,
			"byteOffset":4896,
			"target":34963
		},
		{
			"buffer":0,
			"byteLength":1368,
			"byteOffset":5820,
			"target":34962
		},
		{
			"buffer":0,
			"byteLength":1368,
			"byteOffset":7188,
			"target":34962
		},
		{
			"buffer":0,
			"byteLength":1344,
			"byteOffset":8556,
			"target":34963
		},
		{
			"buffer":0,
			"byteLength":6120,
			"byteOffset":9900,
			"target":34962
		},
		{
			"buffer":0,
			"byteLength":6120,
			"byteOffset":16020,
			"target":34962
		},
		{
			"buffer":0,
			"byteLength":4272,
			"byteOffset":22140,
			"target":34963
		},
		{
			"buffer":0,
			"byteLength":6120,
			"byteOffset":26412,
			"target":34962
		},
		{
			"buffer":0,
			"byteLength":6120,
			"byteOffset":32532,
			"target":34962
		},
		{
			"buffer":0,
			"byteLength":1368,
			"byteOffset":38652,
			"target":34962
		},
		{
			"buffer":0,
			"byteLength":1368,
			"byteOffset":40020,
			"target":34962
		},
		{
			"buffer":0,
			"byteLength":20460,
			"byteOffset":41388,
			"target":34962
		},
		{
			"buffer":0,
			"byteLength":20460,
			"byteOffset":61848,
			"target":34962
		},
		{
			"buffer":0,
			"byteLength":13640,
			"byteOffset":82308,
			"target":34962
		},
		{
			"buffer":0,
			"byteLength":14592,
			"byteOffset":95948,
			"target":34963
		},
		{
			"buffer":0,
			"byteLength":156,
			"byteOffset":110540,
			"target":34962
		},
		{
			"buffer":0,
			"byteLength":156,
			"byteOffset":110696,
			"target":34962
		},
		{
			"buffer":0,
			"byteLength":104,
			"byteOffset":110852,
			"target":34962
		},
		{
			"buffer":0,
			"byteLength":108,
			"byteOffset":110956,
			"target":34963
		},
		{
			"buffer":0,
			"byteLength":2544,
			"byteOffset":111064,
			"target":34962
		},
		{
			"buffer":0,
			"byteLength":2544,
			"byteOffset":113608,
			"target":34962
		},
		{
			"buffer":0,
			"byteLength":1696,
			"byteOffset":116152,
			"target":34962
		},
		{
			"buffer":0,
			"byteLength":1872,
			"byteOffset":117848,
			"target":34963
		},
		{
			"buffer":0,
			"byteLength":1692,
			"byteOffset":119720,
			"target":34962
		},
		{
			"buffer":0,
			"byteLength":1692,
			"byteOffset":121412,
			"target":34962
		},
		{
			"buffer":0,
			"byteLength":1128,
			"byteOffset":123104,
			"target":34962
		},
		{
			"buffer":0,
			"byteLength":1296,
			"byteOffset":124232,
			"target":34963
		},
		{
			"buffer":0,
			"byteLength":17088,
			"byteOffset":125528,
			"target":34962
		},
		{
			"buffer":0,
			"byteLength":17088,
			"byteOffset":142616,
			"target":34962
		},
		{
			"buffer":0,
			"byteLength":11392,
			"byteOffset":159704,
			"target":34962
		},
		{
			"buffer":0,
			"byteLength":15816,
			"byteOffset":171096,
			"target":34963
		},
		{
			"buffer":0,
			"byteLength":2232,
			"byteOffset":186912,
			"target":34962
		},
		{
			"buffer":0,
			"byteLength":2232,
			"byteOffset":189144,
			"target":34962
		},
		{
			"buffer":0,
			"byteLength":1488,
			"byteOffset":191376,
			"target":34962
		},
		{
			"buffer":0,
			"byteLength":1896,
			"byteOffset":192864,
			"target":34963
		},
		{
			"buffer":0,
			"byteLength":78948,
			"byteOffset":194760,
			"target":34962
		},
		{
			"buffer":0,
			"byteLength":78948,
			"byteOffset":273708,
			"target":34962
		},
		{
			"buffer":0,
			"byteLength":52632,
			"byteOffset":352656,
			"target":34962
		},
		{
			"buffer":0,
			"byteLength":74016,
			"byteOffset":405288,
			"target":34963
		},
		{
			"buffer":0,
			"byteLength":69696,
			"byteOffset":479304,
			"target":34962
		},
		{
			"buffer":0,
			"byteLength":69696,
			"byteOffset":549000,
			"target":34962
		},
		{
			"buffer":0,
			"byteLength":46464,
			"byteOffset":618696,
			"target":34962
		},
		{
			"buffer":0,
			"byteLength":69456,
			"byteOffset":665160,
			"target":34963
		},
		{
			"buffer":0,
			"byteLength":4116,
			"byteOffset":734616,
			"target":34962
		},
		{
			"buffer":0,
			"byteLength":4116,
			"byteOffset":738732,
			"target":34962
		},
		{
			"buffer":0,
			"byteLength":2744,
			"byteOffset":742848,
			"target":34962
		},
		{
			"buffer":0,
			"byteLength":3456,
			"byteOffset":745592,
			"target":34963
		},
		{
			"buffer":0,
			"byteLength":756,
			"byteOffset":749048,
			"target":34962
		},
		{
			"buffer":0,
			"byteLength":756,
			"byteOffset":749804,
			"target":34962
		},
		{
			"buffer":0,
			"byteLength":504,
			"byteOffset":750560,
			"target":34962
		},
		{
			"buffer":0,
			"byteLength":480,
			"byteOffset":751064,
			"target":34963
		},
		{
			"buffer":0,
			"byteLength":20328,
			"byteOffset":751544,
			"target":34962
		},
		{
			"buffer":0,
			"byteLength":20328,
			"byteOffset":771872,
			"target":34962
		},
		{
			"buffer":0,
			"byteLength":13552,
			"byteOffset":792200,
			"target":34962
		},
		{
			"buffer":0,
			"byteLength":6084,
			"byteOffset":805752,
			"target":34963
		},
		{
			"buffer":0,
			"byteLength":39756,
			"byteOffset":811836,
			"target":34962
		},
		{
			"buffer":0,
			"byteLength":39756,
			"byteOffset":851592,
			"target":34962
		},
		{
			"buffer":0,
			"byteLength":26504,
			"byteOffset":891348,
			"target":34962
		},
		{
			"buffer":0,
			"byteLength":15912,
			"byteOffset":917852,
			"target":34963
		},
		{
			"buffer":0,
			"byteLength":39708,
			"byteOffset":933764,
			"target":34962
		},
		{
			"buffer":0,
			"byteLength":39708,
			"byteOffset":973472,
			"target":34962
		},
		{
			"buffer":0,
			"byteLength":26472,
			"byteOffset":1013180,
			"target":34962
		},
		{
			"buffer":0,
			"byteLength":15912,
			"byteOffset":1039652,
			"target":34963
		}
	],
	"samplers":[
		{
			"magFilter":9729,
			"minFilter":9987
		}
	],
	"buffers":[
		{
			"byteLength":1055564,
			"uri":"char_3.bin"
		}
	]
}
