{
	"asset":{
		"generator":"Khronos glTF Blender I/O v4.5.48",
		"version":"2.0"
	},
	"scene":0,
	"scenes":[
		{
			"name":"Scene",
			"nodes":[
				20
			]
		}
	],
	"nodes":[
		{
			"mesh":0,
			"name":"Belt_GR_Body_0"
		},
		{
			"children":[
				0
			],
			"name":"Belt_GR"
		},
		{
			"mesh":1,
			"name":"Body_GR_Body_0"
		},
		{
			"children":[
				2
			],
			"name":"Body_GR"
		},
		{
			"mesh":2,
			"name":"Earpiece_GR_Body_0"
		},
		{
			"children":[
				4
			],
			"name":"Earpiece_GR"
		},
		{
			"mesh":3,
			"name":"Eyes_GR_Eyes_0"
		},
		{
			"children":[
				6
			],
			"name":"Eyes_GR",
			"rotation":[
				0.7071067690849304,
				0,
				0,
				0.7071068286895752
			],
			"scale":[
				100.0748291015625,
				100.07482147216797,
				100.07482147216797
			],
			"translation":[
				234.72140502929688,
				2096.7294921875,
				-61.5548210144043
			]
		},
		{
			"mesh":4,
			"name":"Hair_GR_Hair_0"
		},
		{
			"children":[
				8
			],
			"name":"Hair_GR"
		},
		{
			"mesh":5,
			"name":"Kneepads_GR_Body_0"
		},
		{
			"children":[
				10
			],
			"name":"Kneepads_GR"
		},
		{
			"mesh":6,
			"name":"Pants_GR_Body_0"
		},
		{
			"children":[
				12
			],
			"name":"Pants_GR"
		},
		{
			"mesh":7,
			"name":"polySurface3_Body_0"
		},
		{
			"children":[
				14
			],
			"name":"polySurface3"
		},
		{
			"mesh":8,
			"name":"Shirt_GR_Body_0"
		},
		{
			"children":[
				16
			],
			"name":"Shirt_GR"
		},
		{
			"children":[
				1,
				3,
				5,
				7,
				9,
				11,
				13,
				15,
				17
			],
			"name":"RootNode"
		},
		{
			"children":[
				18
			],
			"name":"05d9a426e5fb407fbab726e25649012d.fbx",
			"rotation":[
				0.6810190677642822,
				-0.19029727578163147,
				-0.19029727578163147,
				0.6810190677642822
			],
			"scale":[
				0.0006599999614991248,
				0.0006600000197067857,
				0.0006600000779144466
			]
		},
		{
			"children":[
				19
			],
			"name":"Sketchfab_model",
			"rotation":[
				-0.70710688829422,
				0,
				0,
				0.7071066498756409
			]
		}
	],
	"materials":[
		{
			"doubleSided":true,
			"emissiveFactor":[
				1,
				1,
				1
			],
			"emissiveTexture":{
				"index":0
			},
			"name":"Body",
			"normalTexture":{
				"index":1
			},
			"occlusionTexture":{
				"index":2
			},
			"pbrMetallicRoughness":{
				"baseColorTexture":{
					"index":3
				},
				"metallicRoughnessTexture":{
					"index":2
				}
			}
		},
		{
			"doubleSided":true,
			"emissiveFactor":[
				1,
				1,
				1
			],
			"emissiveTexture":{
				"index":4
			},
			"name":"Eyes",
			"pbrMetallicRoughness":{
				"baseColorTexture":{
					"index":5
				},
				"metallicFactor":0,
				"roughnessFactor":0.6826894283294678
			}
		},
		{
			"doubleSided":true,
			"name":"Hair",
			"normalTexture":{
				"index":6
			},
			"occlusionTexture":{
				"index":7
			},
			"pbrMetallicRoughness":{
				"baseColorTexture":{
					"index":8
				},
				"metallicFactor":0,
				"metallicRoughnessTexture":{
					"index":7
				}
			}
		}
	],
	"meshes":[
		{
			"name":"Belt_GR_Body_0",
			"primitives":[
				{
					"attributes":{
						"POSITION":0,
						"NORMAL":1,
						"TEXCOORD_0":2,
						"TEXCOORD_1":3
					},
					"indices":4,
					"material":0
				}
			]
		},
		{
			"name":"Body_GR_Body_0",
			"primitives":[
				{
					"attributes":{
						"POSITION":5,
						"NORMAL":6,
						"TEXCOORD_0":7,
						"TEXCOORD_1":8
					},
					"indices":9,
					"material":0
				}
			]
		},
		{
			"name":"Earpiece_GR_Body_0",
			"primitives":[
				{
					"attributes":{
						"POSITION":10,
						"NORMAL":11,
						"TEXCOORD_0":12,
						"TEXCOORD_1":13
					},
					"indices":14,
					"material":0
				}
			]
		},
		{
			"name":"Eyes_GR_Eyes_0",
			"primitives":[
				{
					"attributes":{
						"POSITION":15,
						"NORMAL":16,
						"TEXCOORD_0":17
					},
					"indices":18,
					"material":1
				}
			]
		},
		{
			"name":"Hair_GR_Hair_0",
			"primitives":[
				{
					"attributes":{
						"POSITION":19,
						"NORMAL":20,
						"TEXCOORD_0":21
					},
					"indices":22,
					"material":2
				}
			]
		},
		{
			"name":"Kneepads_GR_Body_0",
			"primitives":[
				{
					"attributes":{
						"POSITION":23,
						"NORMAL":24,
						"TEXCOORD_0":25,
						"TEXCOORD_1":26
					},
					"indices":27,
					"material":0
				}
			]
		},
		{
			"name":"Pants_GR_Body_0",
			"primitives":[
				{
					"attributes":{
						"POSITION":28,
						"NORMAL":29,
						"TEXCOORD_0":30,
						"TEXCOORD_1":31
					},
					"indices":32,
					"material":0
				}
			]
		},
		{
			"name":"polySurface3_Body_0",
			"primitives":[
				{
					"attributes":{
						"POSITION":33,
						"NORMAL":34,
						"TEXCOORD_0":35,
						"TEXCOORD_1":36
					},
					"indices":37,
					"material":0
				}
			]
		},
		{
			"name":"Shirt_GR_Body_0",
			"primitives":[
				{
					"attributes":{
						"POSITION":38,
						"NORMAL":39,
						"TEXCOORD_0":40,
						"TEXCOORD_1":41
					},
					"indices":42,
					"material":0
				}
			]
		}
	],
	"textures":[
		{
			"sampler":0,
			"source":0
		},
		{
			"sampler":0,
			"source":1
		},
		{
			"sampler":0,
			"source":2
		},
		{
			"sampler":0,
			"source":3
		},
		{
			"sampler":0,
			"source":4
		},
		{
			"sampler":0,
			"source":5
		},
		{
			"sampler":0,
			"source":6
		},
		{
			"sampler":0,
			"source":7
		},
		{
			"sampler":0,
			"source":8
		}
	],
	"images":[
		{
			"mimeType":"image/png",
			"name":"Image_7",
			"uri":"Image_7.png"
		},
		{
			"mimeType":"image/png",
			"name":"Image_8",
			"uri":"Image_8.png"
		},
		{
			"mimeType":"image/png",
			"name":"Image_6",
			"uri":"Image_6.png"
		},
		{
			"mimeType":"image/png",
			"name":"Image_5",
			"uri":"Image_5.png"
		},
		{
			"mimeType":"image/png",
			"name":"Image_4",
			"uri":"Image_4.png"
		},
		{
			"mimeType":"image/png",
			"name":"Image_3",
			"uri":"Image_3.png"
		},
		{
			"mimeType":"image/png",
			"name":"Image_2",
			"uri":"Image_2.png"
		},
		{
			"mimeType":"image/png",
			"name":"Image_1",
			"uri":"Image_1.png"
		},
		{
			"mimeType":"image/png",
			"name":"Image_0",
			"uri":"Image_0.png"
		}
	],
	"accessors":[
		{
			"bufferView":0,
			"componentType":5126,
			"count":1464,
			"max":[
				236.1201171875,
				1293.873046875,
				182.27166748046875
			],
			"min":[
				-249.19061279296875,
				470.6619873046875,
				-190.22218322753906
			],
			"type":"VEC3"
		},
		{
			"bufferView":1,
			"componentType":5126,
			"count":1464,
			"type":"VEC3"
		},
		{
			"bufferView":2,
			"componentType":5126,
			"count":1464,
			"type":"VEC2"
		},
		{
			"bufferView":3,
			"componentType":5126,
			"count":1464,
			"type":"VEC2"
		},
		{
			"bufferView":4,
			"componentType":5123,
			"count":5790,
			"type":"SCALAR"
		},
		{
			"bufferView":5,
			"componentType":5126,
			"count":1745,
			"max":[
				384.50640869140625,
				2210.3232421875,
				246.11448669433594
			],
			"min":[
				-738.5999755859375,
				1051.212646484375,
				-158.37132263183594
			],
			"type":"VEC3"
		},
		{
			"bufferView":6,
			"componentType":5126,
			"count":1745,
			"type":"VEC3"
		},
		{
			"bufferView":7,
			"componentType":5126,
			"count":1745,
			"type":"VEC2"
		},
		{
			"bufferView":8,
			"componentType":5126,
			"count":1745,
			"type":"VEC2"
		},
		{
			"bufferView":9,
			"componentType":5123,
			"count":8754,
			"type":"SCALAR"
		},
		{
			"bufferView":10,
			"componentType":5126,
			"count":334,
			"max":[
				115.78083801269531,
				2113.645751953125,
				76.79309844970703
			],
			"min":[
				-114.34681701660156,
				1921.212890625,
				-118.26673126220703
			],
			"type":"VEC3"
		},
		{
			"bufferView":11,
			"componentType":5126,
			"count":334,
			"type":"VEC3"
		},
		{
			"bufferView":12,
			"componentType":5126,
			"count":334,
			"type":"VEC2"
		},
		{
			"bufferView":13,
			"componentType":5126,
			"count":334,
			"type":"VEC2"
		},
		{
			"bufferView":14,
			"componentType":5123,
			"count":1350,
			"type":"SCALAR"
		},
		{
			"bufferView":15,
			"componentType":5126,
			"count":402,
			"max":[
				-1.2747869491577148,
				1.4470003843307495,
				0.54630446434021
			],
			"min":[
				-2.463698387145996,
				0.7848710417747498,
				0.04168723151087761
			],
			"type":"VEC3"
		},
		{
			"bufferView":16,
			"componentType":5126,
			"count":402,
			"type":"VEC3"
		},
		{
			"bufferView":17,
			"componentType":5126,
			"count":402,
			"type":"VEC2"
		},
		{
			"bufferView":18,
			"componentType":5123,
			"count":2280,
			"type":"SCALAR"
		},
		{
			"bufferView":19,
			"componentType":5126,
			"count":3875,
			"max":[
				105.89237213134766,
				2219.15966796875,
				107.1705322265625
			],
			"min":[
				-110.35822296142578,
				2002.5859375,
				-163.30450439453125
			],
			"type":"VEC3"
		},
		{
			"bufferView":20,
			"componentType":5126,
			"count":3875,
			"type":"VEC3"
		},
		{
			"bufferView":21,
			"componentType":5126,
			"count":3875,
			"type":"VEC2"
		},
		{
			"bufferView":22,
			"componentType":5123,
			"count":20163,
			"type":"SCALAR"
		},
		{
			"bufferView":23,
			"componentType":5126,
			"count":1795,
			"max":[
				257.72674560546875,
				713.4830322265625,
				139.954833984375
			],
			"min":[
				-274.0094909667969,
				425.189697265625,
				-138.7843780517578
			],
			"type":"VEC3"
		},
		{
			"bufferView":24,
			"componentType":5126,
			"count":1795,
			"type":"VEC3"
		},
		{
			"bufferView":25,
			"componentType":5126,
			"count":1795,
			"type":"VEC2"
		},
		{
			"bufferView":26,
			"componentType":5126,
			"count":1795,
			"type":"VEC2"
		},
		{
			"bufferView":27,
			"componentType":5123,
			"count":6576,
			"type":"SCALAR"
		},
		{
			"bufferView":28,
			"componentType":5126,
			"count":725,
			"max":[
				259.1272888183594,
				1291.79345703125,
				180.6103515625
			],
			"min":[
				-286.74224853515625,
				465.7303466796875,
				-185.3318634033203
			],
			"type":"VEC3"
		},
		{
			"bufferView":29,
			"componentType":5126,
			"count":725,
			"type":"VEC3"
		},
		{
			"bufferView":30,
			"componentType":5126,
			"count":725,
			"type":"VEC2"
		},
		{
			"bufferView":31,
			"componentType":5126,
			"count":725,
			"type":"VEC2"
		},
		{
			"bufferView":32,
			"componentType":5123,
			"count":3768,
			"type":"SCALAR"
		},
		{
			"bufferView":33,
			"componentType":5126,
			"count":7114,
			"max":[
				298.489990234375,
				687.4415283203125,
				216.1298065185547
			],
			"min":[
				-416.6299133300781,
				-2.2231369018554688,
				-186.21817016601562
			],
			"type":"VEC3"
		},
		{
			"bufferView":34,
			"componentType":5126,
			"count":7114,
			"type":"VEC3"
		},
		{
			"bufferView":35,
			"componentType":5126,
			"count":7114,
			"type":"VEC2"
		},
		{
			"bufferView":36,
			"componentType":5126,
			"count":7114,
			"type":"VEC2"
		},
		{
			"bufferView":37,
			"componentType":5123,
			"count":33582,
			"type":"SCALAR"
		},
		{
			"bufferView":38,
			"componentType":5126,
			"count":1269,
			"max":[
				394.07373046875,
				2064.82373046875,
				215.4915771484375
			],
			"min":[
				-723.8973999023438,
				1086.112060546875,
				-277.79583740234375
			],
			"type":"VEC3"
		},
		{
			"bufferView":39,
			"componentType":5126,
			"count":1269,
			"type":"VEC3"
		},
		{
			"bufferView":40,
			"componentType":5126,
			"count":1269,
			"type":"VEC2"
		},
		{
			"bufferView":41,
			"componentType":5126,
			"count":1269,
			"type":"VEC2"
		},
		{
			"bufferView":42,
			"componentType":5123,
			"count":6540,
			"type":"SCALAR"
		}
	],
	"bufferViews":[
		{
			"buffer":0,
			"byteLength":17568,
			"byteOffset":0,
			"target":34962
		},
		{
			"buffer":0,
			"byteLength":17568,
			"byteOffset":17568,
			"target":34962
		},
		{
			"buffer":0,
			"byteLength":11712,
			"byteOffset":35136,
			"target":34962
		},
		{
			"buffer":0,
			"byteLength":11712,
			"byteOffset":46848,
			"target":34962
		},
		{
			"buffer":0,
			"byteLength":11580,
			"byteOffset":58560,
			"target":34963
		},
		{
			"buffer":0,
			"byteLength":20940,
			"byteOffset":70140,
			"target":34962
		},
		{
			"buffer":0,
			"byteLength":20940,
			"byteOffset":91080,
			"target":34962
		},
		{
			"buffer":0,
			"byteLength":13960,
			"byteOffset":112020,
			"target":34962
		},
		{
			"buffer":0,
			"byteLength":13960,
			"byteOffset":125980,
			"target":34962
		},
		{
			"buffer":0,
			"byteLength":17508,
			"byteOffset":139940,
			"target":34963
		},
		{
			"buffer":0,
			"byteLength":4008,
			"byteOffset":157448,
			"target":34962
		},
		{
			"buffer":0,
			"byteLength":4008,
			"byteOffset":161456,
			"target":34962
		},
		{
			"buffer":0,
			"byteLength":2672,
			"byteOffset":165464,
			"target":34962
		},
		{
			"buffer":0,
			"byteLength":2672,
			"byteOffset":168136,
			"target":34962
		},
		{
			"buffer":0,
			"byteLength":2700,
			"byteOffset":170808,
			"target":34963
		},
		{
			"buffer":0,
			"byteLength":4824,
			"byteOffset":173508,
			"target":34962
		},
		{
			"buffer":0,
			"byteLength":4824,
			"byteOffset":178332,
			"target":34962
		},
		{
			"buffer":0,
			"byteLength":3216,
			"byteOffset":183156,
			"target":34962
		},
		{
			"buffer":0,
			"byteLength":4560,
			"byteOffset":186372,
			"target":34963
		},
		{
			"buffer":0,
			"byteLength":46500,
			"byteOffset":190932,
			"target":34962
		},
		{
			"buffer":0,
			"byteLength":46500,
			"byteOffset":237432,
			"target":34962
		},
		{
			"buffer":0,
			"byteLength":31000,
			"byteOffset":283932,
			"target":34962
		},
		{
			"buffer":0,
			"byteLength":40326,
			"byteOffset":314932,
			"target":34963
		},
		{
			"buffer":0,
			"byteLength":21540,
			"byteOffset":355260,
			"target":34962
		},
		{
			"buffer":0,
			"byteLength":21540,
			"byteOffset":376800,
			"target":34962
		},
		{
			"buffer":0,
			"byteLength":14360,
			"byteOffset":398340,
			"target":34962
		},
		{
			"buffer":0,
			"byteLength":14360,
			"byteOffset":412700,
			"target":34962
		},
		{
			"buffer":0,
			"byteLength":13152,
			"byteOffset":427060,
			"target":34963
		},
		{
			"buffer":0,
			"byteLength":8700,
			"byteOffset":440212,
			"target":34962
		},
		{
			"buffer":0,
			"byteLength":8700,
			"byteOffset":448912,
			"target":34962
		},
		{
			"buffer":0,
			"byteLength":5800,
			"byteOffset":457612,
			"target":34962
		},
		{
			"buffer":0,
			"byteLength":5800,
			"byteOffset":463412,
			"target":34962
		},
		{
			"buffer":0,
			"byteLength":7536,
			"byteOffset":469212,
			"target":34963
		},
		{
			"buffer":0,
			"byteLength":85368,
			"byteOffset":476748,
			"target":34962
		},
		{
			"buffer":0,
			"byteLength":85368,
			"byteOffset":562116,
			"target":34962
		},
		{
			"buffer":0,
			"byteLength":56912,
			"byteOffset":647484,
			"target":34962
		},
		{
			"buffer":0,
			"byteLength":56912,
			"byteOffset":704396,
			"target":34962
		},
		{
			"buffer":0,
			"byteLength":67164,
			"byteOffset":761308,
			"target":34963
		},
		{
			"buffer":0,
			"byteLength":15228,
			"byteOffset":828472,
			"target":34962
		},
		{
			"buffer":0,
			"byteLength":15228,
			"byteOffset":843700,
			"target":34962
		},
		{
			"buffer":0,
			"byteLength":10152,
			"byteOffset":858928,
			"target":34962
		},
		{
			"buffer":0,
			"byteLength":10152,
			"byteOffset":869080,
			"target":34962
		},
		{
			"buffer":0,
			"byteLength":13080,
			"byteOffset":879232,
			"target":34963
		}
	],
	"samplers":[
		{
			"magFilter":9729,
			"minFilter":9987
		}
	],
	"buffers":[
		{
			"byteLength":892312,
			"uri":"char_1.bin"
		}
	]
}
