{
	"asset":{
		"generator":"Khronos glTF Blender I/O v4.5.48",
		"version":"2.0"
	},
	"scene":0,
	"scenes":[
		{
			"name":"Scene",
			"nodes":[
				0
			]
		}
	],
	"nodes":[
		{
			"mesh":0,
			"name":"Mesh_0"
		}
	],
	"materials":[
		{
			"doubleSided":true,
			"name":"Material_0",
			"normalTexture":{
				"index":0
			},
			"pbrMetallicRoughness":{
				"baseColorTexture":{
					"index":1
				},
				"metallicRoughnessTexture":{
					"index":2
				}
			}
		}
	],
	"meshes":[
		{
			"name":"Mesh_0",
			"primitives":[
				{
					"attributes":{
						"POSITION":0,
						"NORMAL":1,
						"TEXCOORD_0":2
					},
					"indices":3,
					"material":0
				}
			]
		}
	],
	"textures":[
		{
			"sampler":0,
			"source":0
		},
		{
			"sampler":0,
			"source":1
		},
		{
			"sampler":0,
			"source":2
		}
	],
	"images":[
		{
			"mimeType":"image/jpeg",
			"name":"Image_2",
			"uri":"Image_2.jpg"
		},
		{
			"mimeType":"image/jpeg",
			"name":"Image_0",
			"uri":"Image_0.jpg"
		},
		{
			"mimeType":"image/jpeg",
			"name":"Image_1",
			"uri":"Image_1.jpg"
		}
	],
	"accessors":[
		{
			"bufferView":0,
			"componentType":5126,
			"count":239673,
			"max":[
				0.7488620281219482,
				0.9518769979476929,
				0.7704560160636902
			],
			"min":[
				-0.7379419803619385,
				-0.9520450234413147,
				-0.7703530192375183
			],
			"type":"VEC3"
		},
		{
			"bufferView":1,
			"componentType":5126,
			"count":239673,
			"type":"VEC3"
		},
		{
			"bufferView":2,
			"componentType":5126,
			"count":239673,
			"type":"VEC2"
		},
		{
			"bufferView":3,
			"componentType":5125,
			"count":1296366,
			"type":"SCALAR"
		}
	],
	"bufferViews":[
		{
			"buffer":0,
			"byteLength":2876076,
			"byteOffset":0,
			"target":34962
		},
		{
			"buffer":0,
			"byteLength":2876076,
			"byteOffset":2876076,
			"target":34962
		},
		{
			"buffer":0,
			"byteLength":1917384,
			"byteOffset":5752152,
			"target":34962
		},
		{
			"buffer":0,
			"byteLength":5185464,
			"byteOffset":7669536,
			"target":34963
		}
	],
	"samplers":[
		{
			"magFilter":9729,
			"minFilter":9987
		}
	],
	"buffers":[
		{
			"byteLength":12855000,
			"uri":"dudu.bin"
		}
	]
}
