{
	"asset":{
		"generator":"Khronos glTF Blender I/O v4.5.48",
		"version":"2.0"
	},
	"scene":0,
	"scenes":[
		{
			"name":"Scene",
			"nodes":[
				0
			]
		}
	],
	"nodes":[
		{
			"mesh":0,
			"name":"Mesh_0"
		}
	],
	"materials":[
		{
			"doubleSided":true,
			"name":"Material_0",
			"normalTexture":{
				"index":0
			},
			"pbrMetallicRoughness":{
				"baseColorTexture":{
					"index":1
				},
				"metallicRoughnessTexture":{
					"index":2
				}
			}
		}
	],
	"meshes":[
		{
			"name":"Mesh_0",
			"primitives":[
				{
					"attributes":{
						"POSITION":0,
						"NORMAL":1,
						"TEXCOORD_0":2
					},
					"indices":3,
					"material":0
				}
			]
		}
	],
	"textures":[
		{
			"sampler":0,
			"source":0
		},
		{
			"sampler":0,
			"source":1
		},
		{
			"sampler":0,
			"source":2
		}
	],
	"images":[
		{
			"mimeType":"image/jpeg",
			"name":"Image_2",
			"uri":"Image_2.jpg"
		},
		{
			"mimeType":"image/jpeg",
			"name":"Image_0",
			"uri":"Image_0.jpg"
		},
		{
			"mimeType":"image/jpeg",
			"name":"Image_1",
			"uri":"Image_1.jpg"
		}
	],
	"accessors":[
		{
			"bufferView":0,
			"componentType":5126,
			"count":219127,
			"max":[
				0.9033219814300537,
				0.9516379833221436,
				0.551065981388092
			],
			"min":[
				-0.8840410113334656,
				-0.9520630240440369,
				-0.5630260109901428
			],
			"type":"VEC3"
		},
		{
			"bufferView":1,
			"componentType":5126,
			"count":219127,
			"type":"VEC3"
		},
		{
			"bufferView":2,
			"componentType":5126,
			"count":219127,
			"type":"VEC2"
		},
		{
			"bufferView":3,
			"componentType":5125,
			"count":1174365,
			"type":"SCALAR"
		}
	],
	"bufferViews":[
		{
			"buffer":0,
			"byteLength":2629524,
			"byteOffset":0,
			"target":34962
		},
		{
			"buffer":0,
			"byteLength":2629524,
			"byteOffset":2629524,
			"target":34962
		},
		{
			"buffer":0,
			"byteLength":1753016,
			"byteOffset":5259048,
			"target":34962
		},
		{
			"buffer":0,
			"byteLength":4697460,
			"byteOffset":7012064,
			"target":34963
		}
	],
	"samplers":[
		{
			"magFilter":9729,
			"minFilter":9987
		}
	],
	"buffers":[
		{
			"byteLength":11709524,
			"uri":"dudu_2.bin"
		}
	]
}
