{
	"asset":{
		"generator":"Khronos glTF Blender I/O v4.5.48",
		"version":"2.0"
	},
	"scene":0,
	"scenes":[
		{
			"name":"Scene",
			"nodes":[
				0
			]
		}
	],
	"nodes":[
		{
			"mesh":0,
			"name":"Mesh_0.001",
			"translation":[
				-0.10000000149011612,
				0.9700000286102295,
				0.029999999329447746
			]
		}
	],
	"materials":[
		{
			"doubleSided":true,
			"name":"Material_0.001",
			"normalTexture":{
				"index":0
			},
			"pbrMetallicRoughness":{
				"baseColorTexture":{
					"index":1
				},
				"metallicRoughnessTexture":{
					"index":2
				}
			}
		}
	],
	"meshes":[
		{
			"name":"Mesh_0.001",
			"primitives":[
				{
					"attributes":{
						"POSITION":0,
						"NORMAL":1,
						"TEXCOORD_0":2
					},
					"indices":3,
					"material":0
				}
			]
		}
	],
	"textures":[
		{
			"sampler":0,
			"source":0
		},
		{
			"sampler":0,
			"source":1
		},
		{
			"sampler":0,
			"source":2
		}
	],
	"images":[
		{
			"mimeType":"image/jpeg",
			"name":"Image_2",
			"uri":"Image_2.jpg"
		},
		{
			"mimeType":"image/jpeg",
			"name":"Image_0",
			"uri":"Image_0.jpg"
		},
		{
			"mimeType":"image/jpeg",
			"name":"Image_1",
			"uri":"Image_1.jpg"
		}
	],
	"accessors":[
		{
			"bufferView":0,
			"componentType":5126,
			"count":216145,
			"max":[
				0.7227240204811096,
				0.9516379833221436,
				0.551065981388092
			],
			"min":[
				-0.8840410113334656,
				-0.9520630240440369,
				-0.5630260109901428
			],
			"type":"VEC3"
		},
		{
			"bufferView":1,
			"componentType":5126,
			"count":216145,
			"type":"VEC3"
		},
		{
			"bufferView":2,
			"componentType":5126,
			"count":216145,
			"type":"VEC2"
		},
		{
			"bufferView":3,
			"componentType":5125,
			"count":1158387,
			"type":"SCALAR"
		}
	],
	"bufferViews":[
		{
			"buffer":0,
			"byteLength":2593740,
			"byteOffset":0,
			"target":34962
		},
		{
			"buffer":0,
			"byteLength":2593740,
			"byteOffset":2593740,
			"target":34962
		},
		{
			"buffer":0,
			"byteLength":1729160,
			"byteOffset":5187480,
			"target":34962
		},
		{
			"buffer":0,
			"byteLength":4633548,
			"byteOffset":6916640,
			"target":34963
		}
	],
	"samplers":[
		{
			"magFilter":9729,
			"minFilter":9987
		}
	],
	"buffers":[
		{
			"byteLength":11550188,
			"uri":"dudu_2.bin"
		}
	]
}
