{
	"asset":{
		"generator":"Khronos glTF Blender I/O v4.5.48",
		"version":"2.0"
	},
	"scene":0,
	"scenes":[
		{
			"name":"Scene",
			"nodes":[
				0
			]
		}
	],
	"nodes":[
		{
			"mesh":0,
			"name":"Mesh_0"
		}
	],
	"materials":[
		{
			"doubleSided":true,
			"name":"Material_0",
			"normalTexture":{
				"index":0
			},
			"pbrMetallicRoughness":{
				"baseColorTexture":{
					"index":1
				},
				"metallicRoughnessTexture":{
					"index":2
				}
			}
		}
	],
	"meshes":[
		{
			"name":"Mesh_0",
			"primitives":[
				{
					"attributes":{
						"POSITION":0,
						"NORMAL":1,
						"TEXCOORD_0":2
					},
					"indices":3,
					"material":0
				}
			]
		}
	],
	"textures":[
		{
			"sampler":0,
			"source":0
		},
		{
			"sampler":0,
			"source":1
		},
		{
			"sampler":0,
			"source":2
		}
	],
	"images":[
		{
			"mimeType":"image/jpeg",
			"name":"Image_2",
			"uri":"Image_2.jpg"
		},
		{
			"mimeType":"image/jpeg",
			"name":"Image_0",
			"uri":"Image_0.jpg"
		},
		{
			"mimeType":"image/jpeg",
			"name":"Image_1",
			"uri":"Image_1.jpg"
		}
	],
	"accessors":[
		{
			"bufferView":0,
			"componentType":5126,
			"count":205456,
			"max":[
				0.560854971408844,
				0.9519829750061035,
				0.5129789710044861
			],
			"min":[
				-0.5330190062522888,
				-0.9520400166511536,
				-0.5034909844398499
			],
			"type":"VEC3"
		},
		{
			"bufferView":1,
			"componentType":5126,
			"count":205456,
			"type":"VEC3"
		},
		{
			"bufferView":2,
			"componentType":5126,
			"count":205456,
			"type":"VEC2"
		},
		{
			"bufferView":3,
			"componentType":5125,
			"count":1095375,
			"type":"SCALAR"
		}
	],
	"bufferViews":[
		{
			"buffer":0,
			"byteLength":2465472,
			"byteOffset":0,
			"target":34962
		},
		{
			"buffer":0,
			"byteLength":2465472,
			"byteOffset":2465472,
			"target":34962
		},
		{
			"buffer":0,
			"byteLength":1643648,
			"byteOffset":4930944,
			"target":34962
		},
		{
			"buffer":0,
			"byteLength":4381500,
			"byteOffset":6574592,
			"target":34963
		}
	],
	"samplers":[
		{
			"magFilter":9729,
			"minFilter":9987
		}
	],
	"buffers":[
		{
			"byteLength":10956092,
			"uri":"dudu_3.bin"
		}
	]
}
