{
	"asset":{
		"generator":"Khronos glTF Blender I/O v4.5.48",
		"version":"2.0"
	},
	"scene":0,
	"scenes":[
		{
			"name":"Scene",
			"nodes":[
				0
			]
		}
	],
	"nodes":[
		{
			"mesh":0,
			"name":"Mesh_0"
		}
	],
	"materials":[
		{
			"doubleSided":true,
			"name":"Material.001",
			"normalTexture":{
				"index":0
			},
			"pbrMetallicRoughness":{
				"baseColorTexture":{
					"index":1
				},
				"metallicFactor":0,
				"roughnessFactor":0.5
			}
		}
	],
	"meshes":[
		{
			"name":"Mesh_0",
			"primitives":[
				{
					"attributes":{
						"POSITION":0,
						"NORMAL":1,
						"TEXCOORD_0":2
					},
					"indices":3,
					"material":0
				}
			]
		}
	],
	"textures":[
		{
			"sampler":0,
			"source":0
		},
		{
			"sampler":0,
			"source":1
		}
	],
	"images":[
		{
			"mimeType":"image/jpeg",
			"name":"Image_2",
			"uri":"Image_2.jpg"
		},
		{
			"mimeType":"image/jpeg",
			"name":"Image_0",
			"uri":"Image_0.jpg"
		}
	],
	"accessors":[
		{
			"bufferView":0,
			"componentType":5126,
			"count":75115,
			"max":[
				0.2919781506061554,
				0.9520040154457092,
				0.243258997797966
			],
			"min":[
				-0.4997760057449341,
				-0.4689086377620697,
				-0.17918825149536133
			],
			"type":"VEC3"
		},
		{
			"bufferView":1,
			"componentType":5126,
			"count":75115,
			"type":"VEC3"
		},
		{
			"bufferView":2,
			"componentType":5126,
			"count":75115,
			"type":"VEC2"
		},
		{
			"bufferView":3,
			"componentType":5125,
			"count":380955,
			"type":"SCALAR"
		}
	],
	"bufferViews":[
		{
			"buffer":0,
			"byteLength":901380,
			"byteOffset":0,
			"target":34962
		},
		{
			"buffer":0,
			"byteLength":901380,
			"byteOffset":901380,
			"target":34962
		},
		{
			"buffer":0,
			"byteLength":600920,
			"byteOffset":1802760,
			"target":34962
		},
		{
			"buffer":0,
			"byteLength":1523820,
			"byteOffset":2403680,
			"target":34963
		}
	],
	"samplers":[
		{
			"magFilter":9729,
			"minFilter":9987
		}
	],
	"buffers":[
		{
			"byteLength":3927500,
			"uri":"holding-phone.bin"
		}
	]
}
