{
	"asset":{
		"generator":"Khronos glTF Blender I/O v4.5.48",
		"version":"2.0"
	},
	"extensionsUsed":[
		"KHR_materials_clearcoat"
	],
	"scene":0,
	"scenes":[
		{
			"name":"Scene",
			"nodes":[
				8
			]
		}
	],
	"nodes":[
		{
			"mesh":0,
			"name":"Rita_Main_ShaderfxShader_Rita_Body_0"
		},
		{
			"mesh":1,
			"name":"Rita_Main_ShaderfxShader_Rita_Eye_0"
		},
		{
			"mesh":2,
			"name":"Rita_Main_ShaderfxShader_Rita_Hair_0"
		},
		{
			"mesh":3,
			"name":"Rita_Main_ShaderfxShader_Rita_Head_0"
		},
		{
			"mesh":4,
			"name":"Rita_Main_ShaderfxShader_Rita_Parts_0"
		},
		{
			"children":[
				0,
				1,
				2,
				3,
				4
			],
			"name":"Rita_Main"
		},
		{
			"children":[
				5
			],
			"name":"RootNode"
		},
		{
			"children":[
				6
			],
			"name":"e7ff9305415c41a2ba03d42d4840af22.fbx",
			"rotation":[
				0.70710688829422,
				0,
				0,
				0.7071066498756409
			],
			"scale":[
				0.29999998211860657,
				0.29999998211860657,
				0.30000001192092896
			],
			"translation":[
				0,
				0,
				24.999996185302734
			]
		},
		{
			"children":[
				7
			],
			"name":"Sketchfab_model",
			"rotation":[
				-0.7045304775238037,
				0.06030676141381264,
				0.060306768864393234,
				0.7045304179191589
			],
			"scale":[
				0.02877093106508255,
				0.02877093479037285,
				0.028770938515663147
			],
			"translation":[
				-2.2263358914642595e-05,
				0,
				-1.213518225995358e-05
			]
		}
	],
	"materials":[
		{
			"emissiveFactor":[
				0.15000000596046448,
				0.15000000596046448,
				0.15000000596046448
			],
			"emissiveTexture":{
				"index":0
			},
			"extensions":{
				"KHR_materials_clearcoat":{
					"clearcoatFactor":1,
					"clearcoatRoughnessFactor":1
				}
			},
			"name":"ShaderfxShader_Rita_Body",
			"pbrMetallicRoughness":{
				"baseColorTexture":{
					"index":1
				},
				"metallicFactor":0
			}
		},
		{
			"emissiveFactor":[
				0.4963795840740204,
				0.4963795840740204,
				0.4963795840740204
			],
			"emissiveTexture":{
				"index":2
			},
			"name":"ShaderfxShader_Rita_Eye",
			"pbrMetallicRoughness":{
				"baseColorTexture":{
					"index":3
				},
				"metallicFactor":0
			}
		},
		{
			"emissiveFactor":[
				0.15000000596046448,
				0.15000000596046448,
				0.15000000596046448
			],
			"emissiveTexture":{
				"index":4
			},
			"extensions":{
				"KHR_materials_clearcoat":{
					"clearcoatFactor":1,
					"clearcoatRoughnessFactor":1,
					"clearcoatRoughnessTexture":{
						"index":5
					},
					"clearcoatNormalTexture":{
						"index":6
					}
				}
			},
			"name":"ShaderfxShader_Rita_Hair",
			"pbrMetallicRoughness":{
				"baseColorTexture":{
					"index":7
				},
				"metallicFactor":0
			}
		},
		{
			"emissiveFactor":[
				0.15000000596046448,
				0.15000000596046448,
				0.15000000596046448
			],
			"emissiveTexture":{
				"index":8
			},
			"extensions":{
				"KHR_materials_clearcoat":{
					"clearcoatFactor":1,
					"clearcoatRoughnessFactor":1
				}
			},
			"name":"ShaderfxShader_Rita_Head",
			"pbrMetallicRoughness":{
				"baseColorTexture":{
					"index":9
				},
				"metallicFactor":0
			}
		},
		{
			"emissiveFactor":[
				0.15000000596046448,
				0.15000000596046448,
				0.15000000596046448
			],
			"emissiveTexture":{
				"index":10
			},
			"extensions":{
				"KHR_materials_clearcoat":{
					"clearcoatFactor":1,
					"clearcoatRoughnessFactor":1
				}
			},
			"name":"ShaderfxShader_Rita_Parts",
			"pbrMetallicRoughness":{
				"baseColorTexture":{
					"index":11
				},
				"metallicFactor":0
			}
		}
	],
	"meshes":[
		{
			"name":"Rita_Main_ShaderfxShader_Rita_Body_0",
			"primitives":[
				{
					"attributes":{
						"POSITION":0,
						"NORMAL":1,
						"TEXCOORD_0":2
					},
					"indices":3,
					"material":0
				}
			]
		},
		{
			"name":"Rita_Main_ShaderfxShader_Rita_Eye_0",
			"primitives":[
				{
					"attributes":{
						"POSITION":4,
						"NORMAL":5,
						"TEXCOORD_0":6
					},
					"indices":7,
					"material":1
				}
			]
		},
		{
			"name":"Rita_Main_ShaderfxShader_Rita_Hair_0",
			"primitives":[
				{
					"attributes":{
						"POSITION":8,
						"NORMAL":9,
						"TEXCOORD_0":10
					},
					"indices":11,
					"material":2
				}
			]
		},
		{
			"name":"Rita_Main_ShaderfxShader_Rita_Head_0",
			"primitives":[
				{
					"attributes":{
						"POSITION":12,
						"NORMAL":13,
						"TEXCOORD_0":14
					},
					"indices":15,
					"material":3
				}
			]
		},
		{
			"name":"Rita_Main_ShaderfxShader_Rita_Parts_0",
			"primitives":[
				{
					"attributes":{
						"POSITION":16,
						"NORMAL":17,
						"TEXCOORD_0":18
					},
					"indices":19,
					"material":4
				}
			]
		}
	],
	"textures":[
		{
			"sampler":0,
			"source":0
		},
		{
			"sampler":0,
			"source":0
		},
		{
			"sampler":0,
			"source":1
		},
		{
			"sampler":0,
			"source":1
		},
		{
			"sampler":0,
			"source":2
		},
		{
			"sampler":0,
			"source":3
		},
		{
			"sampler":0,
			"source":4
		},
		{
			"sampler":0,
			"source":2
		},
		{
			"sampler":0,
			"source":5
		},
		{
			"sampler":0,
			"source":5
		},
		{
			"sampler":0,
			"source":6
		},
		{
			"sampler":0,
			"source":6
		}
	],
	"images":[
		{
			"mimeType":"image/jpeg",
			"name":"Image_0",
			"uri":"Image_0.jpg"
		},
		{
			"mimeType":"image/jpeg",
			"name":"Image_3",
			"uri":"Image_3.jpg"
		},
		{
			"mimeType":"image/jpeg",
			"name":"Image_4",
			"uri":"Image_4.jpg"
		},
		{
			"mimeType":"image/png",
			"name":"Image_5",
			"uri":"Image_5.png"
		},
		{
			"mimeType":"image/png",
			"name":"Image_6",
			"uri":"Image_6.png"
		},
		{
			"mimeType":"image/jpeg",
			"name":"Image_2",
			"uri":"Image_2.jpg"
		},
		{
			"mimeType":"image/jpeg",
			"name":"Image_1",
			"uri":"Image_1.jpg"
		}
	],
	"accessors":[
		{
			"bufferView":0,
			"componentType":5126,
			"count":28416,
			"max":[
				10.013481140136719,
				56.4454345703125,
				50.46949768066406
			],
			"min":[
				-39.123104095458984,
				-64.82303619384766,
				-21.58522605895996
			],
			"type":"VEC3"
		},
		{
			"bufferView":1,
			"componentType":5126,
			"count":28416,
			"type":"VEC3"
		},
		{
			"bufferView":2,
			"componentType":5126,
			"count":28416,
			"type":"VEC2"
		},
		{
			"bufferView":3,
			"componentType":5123,
			"count":141576,
			"type":"SCALAR"
		},
		{
			"bufferView":4,
			"componentType":5126,
			"count":756,
			"max":[
				3.696446418762207,
				67.68231201171875,
				11.109045028686523
			],
			"min":[
				-8.035980224609375,
				61.30393981933594,
				4.438368797302246
			],
			"type":"VEC3"
		},
		{
			"bufferView":5,
			"componentType":5126,
			"count":756,
			"type":"VEC3"
		},
		{
			"bufferView":6,
			"componentType":5126,
			"count":756,
			"type":"VEC2"
		},
		{
			"bufferView":7,
			"componentType":5123,
			"count":3528,
			"type":"SCALAR"
		},
		{
			"bufferView":8,
			"componentType":5126,
			"count":18451,
			"max":[
				39.123104095458984,
				82.39968872070312,
				13.755324363708496
			],
			"min":[
				-21.16898536682129,
				11.005279541015625,
				-50.46949768066406
			],
			"type":"VEC3"
		},
		{
			"bufferView":9,
			"componentType":5126,
			"count":18451,
			"type":"VEC3"
		},
		{
			"bufferView":10,
			"componentType":5126,
			"count":18451,
			"type":"VEC2"
		},
		{
			"bufferView":11,
			"componentType":5123,
			"count":78348,
			"type":"SCALAR"
		},
		{
			"bufferView":12,
			"componentType":5126,
			"count":6524,
			"max":[
				4.780317306518555,
				78.52925109863281,
				12.323108673095703
			],
			"min":[
				-13.392935752868652,
				52.92185974121094,
				-3.19789981842041
			],
			"type":"VEC3"
		},
		{
			"bufferView":13,
			"componentType":5126,
			"count":6524,
			"type":"VEC3"
		},
		{
			"bufferView":14,
			"componentType":5126,
			"count":6524,
			"type":"VEC2"
		},
		{
			"bufferView":15,
			"componentType":5123,
			"count":31824,
			"type":"SCALAR"
		},
		{
			"bufferView":16,
			"componentType":5126,
			"count":32150,
			"max":[
				16.904521942138672,
				57.91229248046875,
				39.50593566894531
			],
			"min":[
				-32.805381774902344,
				-82.39968872070312,
				-19.510496139526367
			],
			"type":"VEC3"
		},
		{
			"bufferView":17,
			"componentType":5126,
			"count":32150,
			"type":"VEC3"
		},
		{
			"bufferView":18,
			"componentType":5126,
			"count":32150,
			"type":"VEC2"
		},
		{
			"bufferView":19,
			"componentType":5123,
			"count":136980,
			"type":"SCALAR"
		}
	],
	"bufferViews":[
		{
			"buffer":0,
			"byteLength":340992,
			"byteOffset":0,
			"target":34962
		},
		{
			"buffer":0,
			"byteLength":340992,
			"byteOffset":340992,
			"target":34962
		},
		{
			"buffer":0,
			"byteLength":227328,
			"byteOffset":681984,
			"target":34962
		},
		{
			"buffer":0,
			"byteLength":283152,
			"byteOffset":909312,
			"target":34963
		},
		{
			"buffer":0,
			"byteLength":9072,
			"byteOffset":1192464,
			"target":34962
		},
		{
			"buffer":0,
			"byteLength":9072,
			"byteOffset":1201536,
			"target":34962
		},
		{
			"buffer":0,
			"byteLength":6048,
			"byteOffset":1210608,
			"target":34962
		},
		{
			"buffer":0,
			"byteLength":7056,
			"byteOffset":1216656,
			"target":34963
		},
		{
			"buffer":0,
			"byteLength":221412,
			"byteOffset":1223712,
			"target":34962
		},
		{
			"buffer":0,
			"byteLength":221412,
			"byteOffset":1445124,
			"target":34962
		},
		{
			"buffer":0,
			"byteLength":147608,
			"byteOffset":1666536,
			"target":34962
		},
		{
			"buffer":0,
			"byteLength":156696,
			"byteOffset":1814144,
			"target":34963
		},
		{
			"buffer":0,
			"byteLength":78288,
			"byteOffset":1970840,
			"target":34962
		},
		{
			"buffer":0,
			"byteLength":78288,
			"byteOffset":2049128,
			"target":34962
		},
		{
			"buffer":0,
			"byteLength":52192,
			"byteOffset":2127416,
			"target":34962
		},
		{
			"buffer":0,
			"byteLength":63648,
			"byteOffset":2179608,
			"target":34963
		},
		{
			"buffer":0,
			"byteLength":385800,
			"byteOffset":2243256,
			"target":34962
		},
		{
			"buffer":0,
			"byteLength":385800,
			"byteOffset":2629056,
			"target":34962
		},
		{
			"buffer":0,
			"byteLength":257200,
			"byteOffset":3014856,
			"target":34962
		},
		{
			"buffer":0,
			"byteLength":273960,
			"byteOffset":3272056,
			"target":34963
		}
	],
	"samplers":[
		{
			"magFilter":9729,
			"minFilter":9987
		}
	],
	"buffers":[
		{
			"byteLength":3546016,
			"uri":"char_2.bin"
		}
	]
}
